<svg width="161" height="48" viewBox="0 0 161 48" fill="none" xmlns="http://www.w3.org/2000/svg">
<g clip-path="url(#clip0_69_18)">
<mask id="mask0_69_18" style="mask-type:luminance" maskUnits="userSpaceOnUse" x="0" y="0" width="161" height="48">
<path d="M160.475 0H0V48H160.475V0Z" fill="white"/>
</mask>
<g mask="url(#mask0_69_18)">
<path d="M32.7118 17.1896L31.031 19.7288L24.4609 8.74463H27.6841L32.7118 17.1896Z" fill="#BAEA49"/>
<path d="M21.6415 8.72974H18.4258L27.7885 24.5L29.432 21.8523L21.6415 8.72974Z" fill="#BAEA49"/>
<path d="M35.5869 15.7142C35.9725 15.0887 36.1746 14.366 36.1746 13.6319V8.82333C36.1746 8.70724 36.0698 8.59114 35.9127 8.53122L19.8487 2.76762C19.7476 2.73017 19.6353 2.73017 19.5379 2.76388L3.40296 8.40015C3.00614 8.53871 2.74034 8.86827 2.74034 9.22405V28.1926C2.74034 29.2076 3.0885 30.185 3.74738 31.0202C6.33796 34.3083 11.77 40.3864 19.4407 44.8355C21.466 43.6184 23.5362 42.3488 25.3668 41.199C26.2278 40.6598 26.9616 39.9333 27.5194 39.0794L28.2869 37.8959L38.754 20.3879C38.8139 20.2906 38.9637 20.3318 38.9637 20.4479V24.4288C38.9637 25.2566 38.7278 26.0655 38.2824 26.762L32.6594 36.3642L32.6406 36.3942L32.0978 37.2406L32.0904 37.2519L31.7983 37.7124L31.8133 37.7237L30.7876 39.4464L30.7801 39.4576L30.0651 40.626C29.5073 41.5398 28.7435 42.3152 27.8414 42.888C25.2845 44.5097 22.3532 46.2886 20.1594 47.5956L19.4818 48L18.7893 47.6144C10.3399 42.9068 4.38753 36.2594 1.59478 32.7166C0.550313 31.3946 0 29.8292 0 28.1926V9.22405C0 7.70731 1.00329 6.33664 2.497 5.81608L18.632 0.179812C19.3247 -0.0598693 20.0809 -0.0598693 20.7696 0.187303L36.8336 5.95464C38.0764 6.4003 38.9113 7.55376 38.9113 8.82333V14.718C38.9113 15.4408 38.7129 16.1486 38.3422 16.7666L25.6289 37.8998L20.5712 41.2066C20.4364 41.2965 20.2755 41.1392 20.3578 41.0006L35.5869 15.7142Z" fill="#202D35"/>
<path d="M61.3134 21.5376L58.0901 25.0542L56.574 23.4026L49.2178 15.3846H55.668L59.8009 19.8899L61.3134 21.5376ZM76.9206 15.3809L69.6093 23.354L66.386 26.8668L66.2961 26.9642L65.5399 27.7881L65.4464 27.8892V34.4018H60.6994V27.8892L60.6058 27.7881L59.9432 27.0653L59.8496 26.9642L63.073 23.4513L63.1628 23.354L64.6902 21.6912L66.3897 19.8411L69.2275 16.7478L70.4778 15.3846H76.9206V15.3809Z" fill="#202D35"/>
<path d="M102.433 15.3772V34.4057H97.8057V32.3646L95.9564 34.4057H84.1077C81.3037 34.1174 79.0576 31.9452 78.6533 29.174V15.3772H83.4077V27.8182C83.4077 28.8293 84.2275 29.6495 85.2383 29.6495H97.6672L97.6746 15.3772H102.433Z" fill="#202D35"/>
<path d="M128.141 15.3772V34.4057H122.383L109.12 21.1371V34.4057H104.365V15.3772H110.089L123.386 28.6796V15.3772H128.141Z" fill="#202D35"/>
<path d="M130.042 34.4056V19.9124H134.797V34.4056H130.042Z" fill="#202D35"/>
<path d="M160.475 34.4057H153.489L145.196 26.6948L141.457 29.466V34.372H136.702V27.0692L141.457 23.5451L141.655 23.4028L145.54 20.5229L152.477 15.3772H160.466L149.083 23.8148L160.475 34.4057ZM141.457 20.3207L136.702 23.8448V15.3772H141.457V20.3207Z" fill="#202D35"/>
<path d="M130.079 18.2496V15.3772H134.834V18.2496H130.079Z" fill="#BAEA49"/>
</g>
</g>
<defs>
<clipPath id="clip0_69_18">
<rect width="160.5" height="48" fill="white"/>
</clipPath>
</defs>
</svg>
